<svg version="1.1" id="Layer_1" xmlns="http://www.w3.org/2000/svg" xmlns:xlink="http://www.w3.org/1999/xlink" x="0px" y="0px"
	 width="100%" viewBox="0 0 320 242" enable-background="new 0 0 320 242" xml:space="preserve">
<path fill="#000000" opacity="1.000000" stroke="none" 
	d="
M1.000000,65.000000 
	C1.000000,43.710361 1.000000,22.420723 1.000000,1.000000 
	C50.687489,1.000000 100.375084,1.000000 150.474915,1.281819 
	C150.646957,2.046981 150.406769,2.530324 149.971054,3.376585 
	C149.665222,6.127008 149.136627,8.585696 149.528397,10.887763 
	C150.452545,16.318401 151.895950,21.658159 152.984085,27.063911 
	C155.521393,39.668812 157.982315,52.289146 160.454895,64.907005 
	C161.407852,69.770042 162.308533,74.643318 163.319656,79.968163 
	C160.139664,79.968163 157.811462,80.173088 155.530533,79.931580 
	C147.061508,79.034866 138.616821,77.907272 130.146545,77.023926 
	C119.539513,75.917740 108.913246,74.997398 98.300835,73.941048 
	C85.408348,72.657738 72.518883,71.342583 59.633900,69.986115 
	C54.915051,69.489334 50.218735,68.780525 45.501549,68.265419 
	C38.672874,67.519722 31.834576,66.862175 24.669102,66.100464 
	C23.891695,66.078262 23.445570,66.122612 22.583735,66.080002 
	C15.112018,65.662025 8.056008,65.331009 1.000000,65.000000 
z"/>
<path fill="#000000" opacity="1.000000" stroke="none" 
	d="
M150.000000,243.000000 
	C100.437508,243.000000 50.875015,243.000000 1.000000,243.000000 
	C1.000000,223.313538 1.000000,203.625427 1.260930,183.130066 
	C3.233451,183.139008 4.983024,184.716660 6.649759,184.633514 
	C12.448594,184.344269 18.218719,183.479431 24.363478,182.902283 
	C25.831245,182.686844 26.935295,182.402573 28.487757,182.069397 
	C32.957336,181.624741 36.978504,181.228989 41.375217,180.901749 
	C43.513615,180.019455 45.276466,179.068665 47.422737,178.067902 
	C50.165810,178.026077 52.525463,178.034241 54.946678,178.413727 
	C56.663395,178.801071 58.318546,178.817093 60.415924,178.902008 
	C64.238724,178.591797 67.619301,178.212677 71.401855,177.902496 
	C73.869026,177.258774 75.934219,176.546112 78.331451,175.812515 
	C83.788704,175.567291 88.913933,175.342987 94.494713,175.069595 
	C107.860229,173.997284 120.776154,173.042160 133.676697,171.911453 
	C137.821732,171.548157 141.926178,170.721588 146.431183,170.050354 
	C152.151642,169.684296 157.490112,169.374847 163.158356,169.046295 
	C159.537521,186.891037 156.063461,204.012497 152.337784,221.444122 
	C151.708725,223.799271 151.331284,225.844238 150.619385,228.100037 
	C149.912140,230.874191 149.539337,233.437515 149.097626,236.419235 
	C149.352463,238.891754 149.676224,240.945877 150.000000,243.000000 
z"/>
<path fill="#000000" opacity="1.000000" stroke="none" 
	d="
M159.000000,1.000000 
	C212.915512,1.000000 266.831024,1.000000 321.000000,1.000000 
	C321.000000,40.020527 321.000000,79.041603 320.774231,118.885696 
	C319.789001,119.381187 318.933258,119.184494 318.284363,118.706795 
	C305.841461,109.546440 293.422913,100.353073 280.687866,91.013252 
	C272.264282,85.200775 264.152130,79.541595 255.902252,73.576920 
	C251.857178,70.142700 247.949799,67.013969 243.850830,63.569317 
	C241.593109,62.411610 239.224518,61.964867 237.515747,60.656433 
	C231.613708,56.137177 226.122757,51.070190 220.129944,46.683567 
	C214.423721,42.506744 208.136124,39.128059 202.389801,35.000755 
	C198.674820,32.332474 195.473785,28.948631 191.899139,25.574841 
	C185.565506,20.743959 179.433731,16.140400 173.163467,11.733901 
	C169.252457,8.985383 165.132339,6.534401 161.021057,3.714138 
	C160.662155,3.304766 160.388260,3.131152 160.006439,2.689008 
	C159.598999,1.946985 159.299500,1.473493 159.000000,1.000000 
z"/>
<path fill="#000000" opacity="1.000000" stroke="none" 
	d="
M321.000000,130.000000 
	C321.000000,167.606445 321.000000,205.212906 321.000000,243.000000 
	C267.645905,243.000000 214.291611,243.000000 160.130829,242.764343 
	C161.882538,240.630295 164.440765,238.731918 167.335770,236.797546 
	C170.813293,234.194473 173.954041,231.627411 177.062515,229.046432 
	C177.030243,229.032532 177.058304,229.096970 177.423294,229.047424 
	C182.887909,225.354431 187.987534,221.710983 193.058868,218.055115 
	C193.030594,218.042694 193.056503,218.098740 193.382050,218.051575 
	C194.509903,217.350418 195.312210,216.696442 196.398102,215.927734 
	C197.467621,215.247711 198.253555,214.682388 199.359131,213.967865 
	C206.146301,209.344116 212.676239,204.956604 219.065933,200.373566 
	C227.474213,194.342651 235.772247,188.158020 244.427505,181.862930 
	C245.749725,180.495316 246.881851,178.202499 247.754547,178.297302 
	C252.391830,178.801117 253.990814,174.708939 257.356628,172.894073 
	C264.086823,167.969406 270.459991,162.983887 277.029785,157.674561 
	C279.720459,156.452576 282.214539,155.554428 284.960052,154.435822 
	C290.155182,150.515045 295.098846,146.814728 300.359009,142.967804 
	C303.821716,140.561539 306.967926,138.301849 310.474487,136.010345 
	C314.223236,133.985687 317.611603,131.992844 321.000000,130.000000 
z"/>
<path fill="#FF0505" opacity="1.000000" stroke="none" 
	d="
M280.999298,91.166542 
	C293.422913,100.353073 305.841461,109.546440 318.284363,118.706795 
	C318.933258,119.184494 319.789001,119.381187 320.774231,119.354355 
	C321.000000,120.066673 321.000000,121.133339 320.557983,122.599907 
	C316.410645,122.666534 312.705322,122.333267 308.667542,121.904564 
	C306.223389,120.872749 304.111694,119.936378 301.945190,118.653038 
	C299.906403,116.473785 298.025940,114.511765 295.920105,112.832298 
	C287.986481,106.505043 279.979492,100.269737 272.012756,93.688614 
	C272.181641,90.726463 273.172363,90.678833 275.098389,92.187721 
	C277.300842,93.913132 279.601868,94.767105 280.999298,91.166542 
z"/>
<path fill="#FF0505" opacity="1.000000" stroke="none" 
	d="
M54.885120,178.042404 
	C52.525463,178.034241 50.165810,178.026077 47.367973,177.726227 
	C45.535477,172.533371 42.527725,175.426102 39.592060,176.005249 
	C35.789413,175.673660 32.394707,175.336838 28.701048,175.114426 
	C27.268064,175.819229 26.134031,176.409622 24.650887,176.861938 
	C16.497789,176.478638 8.620935,174.902817 1.000000,178.000000 
	C1.000000,174.969406 1.000000,171.938812 1.408639,168.459106 
	C4.211532,168.340012 6.605785,168.669998 9.333242,169.000000 
	C10.110710,169.000000 10.554975,169.000000 10.999585,169.333252 
	C11.000185,170.110825 11.000438,170.555145 10.903969,171.284271 
	C11.998958,172.366531 13.163373,173.790176 14.387514,173.843506 
	C18.000662,174.001007 21.653440,173.776611 25.262268,173.416550 
	C42.846603,171.662048 60.421658,169.814575 78.000000,168.436462 
	C77.999802,171.193100 77.999611,173.513260 77.999413,175.833435 
	C75.934219,176.546112 73.869026,177.258774 71.265663,177.624069 
	C66.879189,174.605286 62.939106,175.823410 58.654762,177.077057 
	C57.168056,177.450211 56.026588,177.746307 54.885120,178.042404 
z"/>
<path fill="#FF0505" opacity="1.000000" stroke="none" 
	d="
M1.000000,65.468658 
	C8.056008,65.331009 15.112018,65.662025 22.479939,66.402313 
	C21.836456,68.404510 20.881060,69.997421 19.481918,72.330177 
	C15.093964,63.042564 12.884892,73.472160 9.762783,72.558113 
	C9.164358,70.739273 8.673406,69.247086 8.182454,67.754898 
	C7.017187,69.318199 4.672039,71.148285 4.951646,72.384880 
	C5.419905,74.455833 7.562218,76.148270 9.000339,78.411209 
	C9.666831,80.881592 10.332986,82.940781 10.999313,85.374969 
	C10.999388,86.500000 10.999288,87.250023 10.681458,88.211716 
	C10.243536,94.949432 10.123344,101.475479 10.003456,108.334381 
	C10.003571,109.111076 10.003382,109.554901 9.835453,110.225761 
	C9.445128,110.968529 9.222546,111.484268 8.587284,111.998787 
	C5.783069,111.665054 3.391534,111.332527 1.000000,111.000000 
	C1.000000,95.979103 1.000000,80.958214 1.000000,65.468658 
z"/>
<path fill="#FF0505" opacity="1.000000" stroke="none" 
	d="
M9.000039,169.000000 
	C6.605785,168.669998 4.211532,168.340012 1.408639,168.005005 
	C1.000000,152.645767 1.000000,137.291550 1.444160,121.468658 
	C4.258855,121.000000 6.629389,121.000000 8.905057,121.309006 
	C8.195241,123.068977 6.967047,124.566772 7.073611,125.962669 
	C7.490680,131.425888 8.225797,136.873169 9.074400,142.290054 
	C9.329828,143.920547 10.336617,145.433304 10.999456,147.416656 
	C10.999599,149.222214 10.999499,150.611115 10.793924,152.091187 
	C10.725410,152.788254 10.862368,153.394119 10.999479,154.375000 
	C10.999502,155.500000 10.999372,156.250000 10.683855,157.208710 
	C9.912326,161.278290 9.456182,165.139145 9.000039,169.000000 
z"/>
<path fill="#FF0505" opacity="1.000000" stroke="none" 
	d="
M166.998993,236.833527 
	C164.440765,238.731918 161.882538,240.630295 159.662170,242.764343 
	C156.969406,243.000000 153.938812,243.000000 150.454102,243.000000 
	C149.676224,240.945877 149.352463,238.891754 149.430054,236.498535 
	C151.227356,236.042236 152.623276,235.925049 154.019211,235.807861 
	C153.703766,234.479996 153.528717,233.097031 153.035080,231.839111 
	C152.494797,230.462250 151.660202,229.200912 150.953857,227.889221 
	C151.331284,225.844238 151.708725,223.799271 152.579590,221.796997 
	C155.715347,222.559799 158.357666,223.279892 161.229340,224.263916 
	C163.362534,224.695984 165.376160,225.323730 167.139206,224.902557 
	C168.890656,224.484161 170.390060,223.010757 172.177368,222.298798 
	C174.667465,224.224991 177.823853,225.241837 177.058304,229.096970 
	C177.058304,229.096970 177.030243,229.032532 176.677704,229.050568 
	C172.193008,230.427704 167.770187,231.437714 166.998993,236.833527 
M161.245026,237.232147 
	C161.348343,236.077194 161.451660,234.922241 161.554977,233.767288 
	C160.667557,233.829498 159.780121,233.891724 158.892700,233.953949 
	C159.475327,235.052811 160.057953,236.151657 161.245026,237.232147 
z"/>
<path fill="#FF0505" opacity="1.000000" stroke="none" 
	d="
M309.000000,122.000000 
	C312.705322,122.333267 316.410645,122.666534 320.557983,122.999901 
	C321.000000,125.041664 321.000000,127.083336 321.000000,129.562500 
	C317.611603,131.992844 314.223236,133.985687 310.035156,136.003113 
	C305.099792,135.721512 301.152618,135.765457 299.665955,140.934814 
	C297.957458,141.389603 295.717346,141.575775 295.364838,142.489899 
	C294.127197,145.699127 291.775482,146.046051 288.972443,146.001266 
	C286.648865,145.964127 284.324188,145.997726 282.131287,145.694489 
	C283.523529,144.096542 284.624756,142.579117 286.073181,141.550644 
	C292.255280,137.160980 298.689209,133.110626 304.701599,128.506027 
	C306.651581,127.012642 307.595764,124.205971 309.000000,122.000000 
z"/>
<path fill="#FF0505" opacity="1.000000" stroke="none" 
	d="
M1.000000,178.416656 
	C8.620935,174.902817 16.497789,176.478638 24.639111,177.235931 
	C24.650883,179.443146 24.325319,181.138290 23.999758,182.833450 
	C18.218719,183.479431 12.448594,184.344269 6.649759,184.633514 
	C4.983024,184.716660 3.233451,183.139008 1.260930,182.661407 
	C1.000000,181.611115 1.000000,180.222214 1.000000,178.416656 
z"/>
<path fill="#FF0505" opacity="1.000000" stroke="none" 
	d="
M8.999923,121.000000 
	C6.629389,121.000000 4.258855,121.000000 1.444160,121.000000 
	C1.000000,119.285645 1.000000,117.571281 1.357718,115.535179 
	C4.476907,115.808952 7.238378,116.404472 10.249687,117.000076 
	C10.499525,117.000153 10.999199,117.000305 10.999352,117.375252 
	C10.999343,118.500092 10.999181,119.249985 10.729431,120.082314 
	C9.973203,120.443161 9.486563,120.721581 8.999923,121.000000 
z"/>
<path fill="#FF0505" opacity="1.000000" stroke="none" 
	d="
M9.999848,117.000000 
	C7.238378,116.404472 4.476907,115.808952 1.357718,115.106720 
	C1.000000,113.933327 1.000000,112.866661 1.000000,111.399994 
	C3.391534,111.332527 5.783069,111.665054 8.621247,112.362274 
	C9.378543,114.151314 9.689196,115.575661 9.999848,117.000000 
z"/>
<path fill="#FF0505" opacity="1.000000" stroke="none" 
	d="
M160.114365,2.957534 
	C160.388260,3.131152 160.662155,3.304766 160.731232,3.893845 
	C156.558411,7.993069 153.295837,6.036388 150.166580,3.013668 
	C150.406769,2.530324 150.646957,2.046981 150.943573,1.281819 
	C152.714157,1.000000 154.428329,1.000000 156.725800,1.286222 
	C158.244217,2.034139 159.179291,2.495835 160.114365,2.957534 
z"/>
<path fill="#FF0505" opacity="1.000000" stroke="none" 
	d="
M160.006439,2.689004 
	C159.179291,2.495835 158.244217,2.034139 157.154572,1.286222 
	C157.444443,1.000000 157.888901,1.000000 158.666672,1.000000 
	C159.299500,1.473493 159.598999,1.946985 160.006439,2.689004 
z"/>
<path fill="#FF0505" opacity="1.000000" stroke="none" 
	d="
M149.971054,3.376586 
	C153.295837,6.036388 156.558411,7.993069 160.816238,4.129601 
	C165.132339,6.534401 169.252457,8.985383 173.163467,11.733901 
	C179.433731,16.140400 185.565506,20.743959 191.918915,25.925217 
	C192.082001,27.913084 192.082001,29.239971 192.082001,30.974699 
	C188.080688,30.241823 185.941193,24.303169 181.713226,28.817905 
	C178.329575,25.966383 175.379196,23.096594 172.089432,20.690908 
	C169.456192,18.765314 166.482452,17.235569 163.479828,15.950837 
	C162.955124,15.726331 160.931580,17.444000 160.681488,18.516729 
	C160.335632,20.000269 160.985001,21.728010 161.261414,23.342056 
	C161.986191,27.574198 162.992599,31.668427 160.134857,35.782780 
	C159.361603,36.896065 160.115677,40.182289 161.286697,41.349411 
	C167.796082,47.837116 168.873062,56.247677 163.153625,63.834816 
	C168.897278,67.279030 171.170593,72.752960 172.247650,79.266876 
	C174.082428,90.363304 173.410538,91.061104 162.149704,89.643471 
	C155.839493,88.849060 149.387894,89.177689 142.666672,89.000214 
	C141.888901,88.999802 141.444443,88.999474 140.795944,88.686676 
	C139.726837,87.944557 138.894241,87.230034 137.991959,87.127312 
	C119.695885,85.044281 101.390251,83.045334 83.089905,80.999405 
	C71.390450,79.691444 59.696445,78.334808 47.974838,76.632706 
	C47.248470,75.278976 46.677101,73.592102 45.822411,73.433678 
	C42.924942,72.896599 39.914906,73.006020 36.971840,72.662903 
	C34.747612,72.403587 32.560017,71.830032 29.619883,71.251450 
	C29.258005,71.769226 28.129004,73.384613 26.666668,75.000000 
	C25.888889,75.000000 25.444445,75.000000 24.939299,74.678391 
	C24.919193,71.626869 24.959787,68.896950 25.000381,66.167030 
	C31.834576,66.862175 38.672874,67.519722 45.501549,68.265419 
	C50.218735,68.780525 54.915051,69.489334 59.633900,69.986115 
	C72.518883,71.342583 85.408348,72.657738 98.300835,73.941048 
	C108.913246,74.997398 119.539513,75.917740 130.146545,77.023926 
	C138.616821,77.907272 147.061508,79.034866 155.530533,79.931580 
	C157.811462,80.173088 160.139664,79.968163 163.319656,79.968163 
	C162.308533,74.643318 161.407852,69.770042 160.454895,64.907005 
	C157.982315,52.289146 155.521393,39.668812 152.984085,27.063911 
	C151.895950,21.658159 150.452545,16.318401 149.528397,10.887763 
	C149.136627,8.585696 149.665222,6.127008 149.971054,3.376586 
z"/>
<path fill="#FF0505" opacity="1.000000" stroke="none" 
	d="
M24.669102,66.100464 
	C24.959787,68.896950 24.919193,71.626869 24.518002,74.659950 
	C22.367155,74.683868 20.584780,74.329559 18.785042,74.140793 
	C14.874118,73.730621 11.103483,73.781677 9.000000,78.000000 
	C7.562218,76.148270 5.419905,74.455833 4.951646,72.384880 
	C4.672039,71.148285 7.017187,69.318199 8.182454,67.754898 
	C8.673406,69.247086 9.164358,70.739273 9.762783,72.558113 
	C12.884892,73.472160 15.093964,63.042564 19.481918,72.330177 
	C20.881060,69.997421 21.836456,68.404510 22.895649,66.489281 
	C23.445570,66.122612 23.891695,66.078262 24.669102,66.100464 
z"/>
<path fill="#FF0505" opacity="1.000000" stroke="none" 
	d="
M161.000000,224.000000 
	C158.357666,223.279892 155.715347,222.559799 152.831207,221.486816 
	C156.063461,204.012497 159.537521,186.891037 163.158356,169.046295 
	C157.490112,169.374847 152.151642,169.684296 146.125031,169.859879 
	C136.170639,169.671906 126.903633,169.672852 117.638382,169.546387 
	C110.091171,169.443375 102.546051,169.187881 94.832848,168.772980 
	C94.443794,168.030640 94.221893,167.515320 94.354919,166.815186 
	C95.184639,166.479309 95.650162,166.241592 96.135574,166.189621 
	C118.440704,163.801147 140.743210,161.386673 163.056137,159.072784 
	C173.980011,157.939957 173.988953,158.026169 171.654373,169.101456 
	C169.334763,170.632019 167.360764,172.061142 165.386780,173.490250 
	C166.924530,174.660156 168.462265,175.830078 169.983383,177.404877 
	C167.234543,186.676514 165.679703,195.758331 164.747131,205.116760 
	C164.329498,206.155685 164.164749,207.077835 164.000000,208.333328 
	C164.000000,209.111099 164.000000,209.555557 163.623169,210.085052 
	C161.956467,210.465927 160.489899,210.475052 159.422958,211.132599 
	C158.183487,211.896469 156.814865,213.093170 156.453049,214.371185 
	C156.268616,215.022629 158.057266,216.419449 159.158936,217.184158 
	C159.925415,217.716187 161.040604,217.745895 161.962387,218.378845 
	C161.616516,220.505142 161.308258,222.252563 161.000000,224.000000 
z"/>
<path fill="#FF0505" opacity="1.000000" stroke="none" 
	d="
M95.000000,169.000000 
	C102.546051,169.187881 110.091171,169.443375 117.638382,169.546387 
	C126.903633,169.672852 136.170639,169.671906 145.743042,169.916504 
	C141.926178,170.721588 137.821732,171.548157 133.676697,171.911453 
	C120.776154,173.042160 107.860229,173.997284 94.567810,174.689606 
	C94.456894,172.572464 94.728447,170.786224 95.000000,169.000000 
z"/>
<path fill="#FF0505" opacity="1.000000" stroke="none" 
	d="
M94.832848,168.772980 
	C94.728447,170.786224 94.456894,172.572464 94.112244,174.738678 
	C88.913933,175.342987 83.788704,175.567291 78.331451,175.812500 
	C77.999611,173.513260 77.999802,171.193100 78.449982,168.436462 
	C81.599968,168.000000 84.299988,168.000000 87.182480,168.227509 
	C89.541313,170.380051 90.360130,168.913544 91.375000,167.000000 
	C92.500000,167.000000 93.250000,167.000000 94.000000,167.000000 
	C94.221893,167.515320 94.443794,168.030640 94.832848,168.772980 
z"/>
<path fill="#FF0505" opacity="1.000000" stroke="none" 
	d="
M29.000000,175.000000 
	C32.394707,175.336838 35.789413,175.673660 39.668472,176.349976 
	C40.435104,178.070740 40.717388,179.451996 40.999672,180.833252 
	C36.978504,181.228989 32.957336,181.624741 28.485104,181.662811 
	C28.356026,179.203445 28.678013,177.101715 29.000000,175.000000 
z"/>
<path fill="#FF0505" opacity="1.000000" stroke="none" 
	d="
M41.375217,180.901749 
	C40.717388,179.451996 40.435104,178.070740 40.076408,176.344742 
	C42.527725,175.426102 45.535477,172.533371 46.984558,177.776215 
	C45.276466,179.068665 43.513615,180.019455 41.375217,180.901749 
z"/>
<path fill="#FF0505" opacity="1.000000" stroke="none" 
	d="
M59.000000,177.000000 
	C62.939106,175.823410 66.879189,174.605286 70.863693,177.555145 
	C67.619301,178.212677 64.238724,178.591797 60.291496,178.674316 
	C59.483234,177.918488 59.241615,177.459244 59.000000,177.000000 
z"/>
<path fill="#FF0505" opacity="1.000000" stroke="none" 
	d="
M150.619400,228.100037 
	C151.660202,229.200912 152.494797,230.462250 153.035080,231.839111 
	C153.528717,233.097031 153.703766,234.479996 154.019211,235.807861 
	C152.623276,235.925049 151.227356,236.042236 149.498993,236.080139 
	C149.539337,233.437515 149.912140,230.874191 150.619400,228.100037 
z"/>
<path fill="#FF0505" opacity="1.000000" stroke="none" 
	d="
M28.701050,175.114426 
	C28.678013,177.101715 28.356026,179.203445 28.036690,181.711731 
	C26.935295,182.402573 25.831245,182.686844 24.363476,182.902283 
	C24.325319,181.138290 24.650883,179.443146 24.988224,177.373993 
	C26.134031,176.409622 27.268064,175.819229 28.701050,175.114426 
z"/>
<path fill="#FF0505" opacity="1.000000" stroke="none" 
	d="
M58.654762,177.077057 
	C59.241615,177.459244 59.483234,177.918488 59.849274,178.605438 
	C58.318546,178.817093 56.663395,178.801071 54.946678,178.413727 
	C56.026588,177.746307 57.168056,177.450211 58.654762,177.077057 
z"/>
<path fill="#FF0505" opacity="1.000000" stroke="none" 
	d="
M182.000000,29.000000 
	C185.941193,24.303169 188.080688,30.241823 192.082001,30.974699 
	C192.082001,29.239971 192.082001,27.913084 192.062225,26.235821 
	C195.473785,28.948631 198.674820,32.332474 202.389801,35.000755 
	C208.136124,39.128059 214.423721,42.506744 220.129944,46.683567 
	C226.122757,51.070190 231.613708,56.137177 237.515747,60.656433 
	C239.224518,61.964867 241.593109,62.411610 243.830429,63.958668 
	C243.911469,68.020874 242.494995,70.330826 238.727493,70.817764 
	C235.829742,68.719398 233.470367,66.709122 236.746811,62.489822 
	C224.429840,62.096161 216.558487,54.537212 208.087479,48.264156 
	C205.573776,46.402691 204.150726,43.107845 201.710861,41.097260 
	C198.702667,38.618332 195.186478,36.741940 191.830139,34.703396 
	C188.592926,32.737217 185.279785,30.896072 182.000000,29.000000 
M240.059494,66.223808 
	C239.998886,66.220764 239.938278,66.217720 240.059494,66.223808 
z"/>
<path fill="#FF0505" opacity="1.000000" stroke="none" 
	d="
M280.687866,91.013252 
	C279.601868,94.767105 277.300842,93.913132 275.098389,92.187721 
	C273.172363,90.678833 272.181641,90.726463 271.665466,93.604156 
	C267.203644,91.220734 263.101807,88.610367 258.959351,85.641724 
	C257.858978,81.508385 253.957214,78.450935 256.039948,73.882416 
	C264.152130,79.541595 272.264282,85.200775 280.687866,91.013252 
z"/>
<path fill="#FF0505" opacity="1.000000" stroke="none" 
	d="
M255.902252,73.576920 
	C253.957214,78.450935 257.858978,81.508385 258.675415,85.461334 
	C251.954758,80.759476 245.477371,75.879738 239.000000,71.000000 
	C242.494995,70.330826 243.911469,68.020874 244.022034,64.274597 
	C247.949799,67.013969 251.857178,70.142700 255.902252,73.576920 
z"/>
<path fill="#FF0505" opacity="1.000000" stroke="none" 
	d="
M244.117691,182.039490 
	C235.772247,188.158020 227.474213,194.342651 219.065933,200.373566 
	C212.676239,204.956604 206.146301,209.344116 199.237457,213.626373 
	C195.864105,211.622757 192.932053,209.811371 190.000000,207.749847 
	C190.000000,207.332932 190.000000,207.166153 190.249268,206.998993 
	C190.498535,206.998596 190.997055,206.998383 191.333130,206.925140 
	C192.779465,206.567917 193.889725,206.283966 195.268524,206.149887 
	C197.024704,205.199860 198.512360,204.099930 200.241791,202.769104 
	C203.989029,200.025467 207.494522,197.512741 211.364471,194.957977 
	C214.163361,194.073624 216.550339,192.721817 219.041595,192.489868 
	C225.149918,191.921204 226.105545,190.969711 225.201416,184.737671 
	C227.601883,182.983566 229.800949,181.491791 232.299377,180.170441 
	C234.868210,179.784622 237.137665,179.228333 239.729416,178.593063 
	C240.784149,179.421417 242.450912,180.730453 244.117691,182.039490 
z"/>
<path fill="#FF0505" opacity="1.000000" stroke="none" 
	d="
M244.427505,181.862930 
	C242.450912,180.730453 240.784149,179.421417 239.729416,178.593063 
	C237.137665,179.228333 234.868210,179.784622 232.543823,179.943085 
	C239.325928,175.030197 246.162964,170.515106 253.133331,166.298035 
	C254.249466,168.831650 258.802643,168.930344 256.999603,172.833237 
	C253.990814,174.708939 252.391830,178.801117 247.754547,178.297302 
	C246.881851,178.202499 245.749725,180.495316 244.427505,181.862930 
z"/>
<path fill="#FF0505" opacity="1.000000" stroke="none" 
	d="
M257.356628,172.894073 
	C258.802643,168.930344 254.249466,168.831650 253.400269,166.092026 
	C257.689240,162.725327 261.844604,159.862656 266.313965,157.170349 
	C270.029663,157.559921 273.431396,157.779144 276.833160,157.998367 
	C270.459991,162.983887 264.086823,167.969406 257.356628,172.894073 
z"/>
<path fill="#FF0505" opacity="1.000000" stroke="none" 
	d="
M282.000000,146.000000 
	C284.324188,145.997726 286.648865,145.964127 288.972443,146.001266 
	C291.775482,146.046051 294.127197,145.699127 295.364838,142.489899 
	C295.717346,141.575775 297.957458,141.389603 299.672241,141.287231 
	C300.022522,142.174698 300.032501,142.644562 300.042511,143.114410 
	C295.098846,146.814728 290.155182,150.515045 284.601440,154.169037 
	C279.660919,153.415161 275.330444,152.707581 271.000000,151.666595 
	C271.000000,150.888641 271.000000,150.444092 271.319427,149.951996 
	C272.425903,149.269424 273.212952,148.634415 274.000000,147.999695 
	C274.000000,148.000000 273.999817,147.999390 274.376373,147.961731 
	C277.168610,147.282715 279.584320,146.641357 282.000000,146.000000 
z"/>
<path fill="#FF0505" opacity="1.000000" stroke="none" 
	d="
M177.423294,229.047424 
	C177.823853,225.241837 174.667465,224.224991 172.386337,222.029800 
	C175.611954,219.974686 178.805969,218.487335 182.418625,217.018097 
	C186.253876,217.379974 189.670517,217.723755 193.087143,218.067535 
	C187.987534,221.710983 182.887909,225.354431 177.423294,229.047424 
z"/>
<path fill="#FF0505" opacity="1.000000" stroke="none" 
	d="
M193.058868,218.055115 
	C189.670517,217.723755 186.253876,217.379974 182.514160,216.690918 
	C184.794052,213.563751 187.397034,210.781891 190.000000,208.000000 
	C192.932053,209.811371 195.864105,211.622757 198.917816,213.775604 
	C198.253555,214.682388 197.467621,215.247711 196.067581,215.969757 
	C194.654480,216.783905 193.855484,217.441315 193.056488,218.098724 
	C193.056503,218.098740 193.030594,218.042694 193.058868,218.055115 
z"/>
<path fill="#FF0505" opacity="1.000000" stroke="none" 
	d="
M271.000000,152.000000 
	C275.330444,152.707581 279.660919,153.415161 284.349976,154.389496 
	C282.214539,155.554428 279.720459,156.452576 277.029785,157.674561 
	C273.431396,157.779144 270.029663,157.559921 266.468262,156.881500 
	C267.872437,154.948196 269.436218,153.474106 271.000000,152.000000 
z"/>
<path fill="#FF0505" opacity="1.000000" stroke="none" 
	d="
M300.359009,142.967804 
	C300.032501,142.644562 300.022522,142.174698 300.006256,141.352417 
	C301.152618,135.765457 305.099792,135.721512 309.674805,136.034943 
	C306.967926,138.301849 303.821716,140.561539 300.359009,142.967804 
z"/>
<path fill="#FF0505" opacity="1.000000" stroke="none" 
	d="
M167.335754,236.797546 
	C167.770187,231.437714 172.193008,230.427704 176.709976,229.064468 
	C173.954041,231.627411 170.813293,234.194473 167.335754,236.797546 
z"/>
<path fill="#FF0505" opacity="1.000000" stroke="none" 
	d="
M193.382050,218.051559 
	C193.855484,217.441315 194.654480,216.783905 195.783997,216.084473 
	C195.312210,216.696442 194.509903,217.350418 193.382050,218.051559 
z"/>
<path fill="#FF0404" opacity="1.000000" stroke="none" 
	d="
M238.727493,70.817764 
	C245.477371,75.879738 251.954758,80.759476 258.716064,85.819603 
	C263.101807,88.610367 267.203644,91.220734 271.652710,93.915550 
	C279.979492,100.269737 287.986481,106.505043 295.920105,112.832298 
	C298.025940,114.511765 299.906403,116.473785 301.945190,118.653038 
	C302.000000,119.000000 301.998199,119.002029 301.640930,118.958191 
	C298.045044,116.928223 294.643890,115.163330 291.592285,112.922470 
	C250.786179,82.957741 210.031845,52.922485 169.245544,22.930725 
	C167.995621,22.011602 166.539413,21.373003 165.179367,20.603624 
	C164.737518,20.835863 164.295654,21.068100 163.853806,21.300339 
	C164.427231,25.303896 164.829468,29.340900 165.603867,33.305195 
	C168.861511,49.981403 172.268631,66.628380 175.536880,83.302551 
	C176.624741,88.852737 174.914719,92.037354 170.180084,91.783615 
	C161.096420,91.296783 152.057495,89.975441 143.000000,89.000305 
	C149.387894,89.177689 155.839493,88.849060 162.149704,89.643471 
	C173.410538,91.061104 174.082428,90.363304 172.247650,79.266876 
	C171.170593,72.752960 168.897278,67.279030 163.153625,63.834816 
	C168.873062,56.247677 167.796082,47.837116 161.286697,41.349411 
	C160.115677,40.182289 159.361603,36.896065 160.134857,35.782780 
	C162.992599,31.668427 161.986191,27.574198 161.261414,23.342056 
	C160.985001,21.728010 160.335632,20.000269 160.681488,18.516729 
	C160.931580,17.444000 162.955124,15.726331 163.479828,15.950837 
	C166.482452,17.235569 169.456192,18.765314 172.089432,20.690908 
	C175.379196,23.096594 178.329575,25.966383 181.713226,28.817905 
	C185.279785,30.896072 188.592926,32.737217 191.830139,34.703396 
	C195.186478,36.741940 198.702667,38.618332 201.710861,41.097260 
	C204.150726,43.107845 205.573776,46.402691 208.087479,48.264156 
	C216.558487,54.537212 224.429840,62.096161 236.746811,62.489822 
	C233.470367,66.709122 235.829742,68.719398 238.727493,70.817764 
z"/>
<path fill="#FF0404" opacity="1.000000" stroke="none" 
	d="
M282.131287,145.694489 
	C279.584320,146.641357 277.168610,147.282715 274.565826,147.685394 
	C284.831329,139.807449 295.283936,132.168182 305.696930,124.557869 
	C304.146637,122.229172 303.072418,120.615593 301.998199,119.002029 
	C301.998199,119.002029 302.000000,119.000000 302.000000,119.000000 
	C304.111694,119.936378 306.223389,120.872749 308.667542,121.904572 
	C307.595764,124.205971 306.651581,127.012642 304.701599,128.506027 
	C298.689209,133.110626 292.255280,137.160980 286.073181,141.550644 
	C284.624756,142.579117 283.523529,144.096542 282.131287,145.694489 
z"/>
<path fill="#FF0000" opacity="1.000000" stroke="none" 
	d="
M301.640930,118.958191 
	C303.072418,120.615593 304.146637,122.229172 305.696930,124.557869 
	C295.283936,132.168182 284.831329,139.807449 274.189270,147.723053 
	C273.999817,147.999390 274.000000,148.000000 273.701477,148.081787 
	C272.601990,148.775711 271.800995,149.387863 270.666565,150.095581 
	C269.309418,150.740860 268.216614,151.192032 267.272278,151.854736 
	C245.461899,167.160278 223.632462,182.439178 201.903244,197.859283 
	C198.047668,200.595383 194.621506,203.936600 190.997055,206.998383 
	C190.997055,206.998383 190.498535,206.998596 189.915802,207.094818 
	C181.427185,212.448639 173.521301,217.706268 165.615402,222.963882 
	C165.173355,222.660355 164.731293,222.356827 164.289230,222.053299 
	C164.436646,220.023743 164.357529,217.947235 164.767059,215.972015 
	C168.280182,199.028107 171.930786,182.112686 175.432083,165.166382 
	C176.792633,158.581314 174.041260,155.460907 167.510452,156.117661 
	C148.009003,158.078781 128.513138,160.097412 109.022316,162.161789 
	C81.768448,165.048431 54.529919,168.083817 27.263422,170.844131 
	C21.892315,171.387878 16.424112,170.972519 11.000690,170.999481 
	C11.000438,170.555145 11.000185,170.110825 10.999950,168.872604 
	C10.999726,164.385818 10.999484,160.692902 10.999242,157.000000 
	C10.999372,156.250000 10.999502,155.500000 10.999749,154.041672 
	C10.999710,152.888901 10.999554,152.444443 10.999397,152.000000 
	C10.999499,150.611115 10.999599,149.222214 10.999813,146.948013 
	C10.999623,137.375092 10.999321,128.687485 10.999019,119.999878 
	C10.999181,119.249985 10.999343,118.500092 10.999550,116.965012 
	C10.667459,114.119453 10.335326,112.059090 10.003193,109.998726 
	C10.003382,109.554901 10.003571,109.111076 10.190799,107.966881 
	C10.584954,100.844353 10.792070,94.422195 10.999187,88.000038 
	C10.999288,87.250023 10.999388,86.500000 10.999804,84.937943 
	C11.085828,75.872246 11.288906,75.779167 19.578932,76.764030 
	C26.833717,77.625893 34.117531,78.241547 41.385975,78.990646 
	C59.388931,80.846069 77.386559,82.754074 95.393700,84.567703 
	C110.590424,86.098282 125.797501,87.525940 141.000000,88.999153 
	C141.444443,88.999474 141.888901,88.999802 142.666672,89.000221 
	C152.057495,89.975441 161.096420,91.296783 170.180084,91.783615 
	C174.914719,92.037354 176.624741,88.852737 175.536880,83.302551 
	C172.268631,66.628380 168.861511,49.981403 165.603867,33.305195 
	C164.829468,29.340900 164.427231,25.303896 163.853806,21.300339 
	C164.295654,21.068100 164.737518,20.835863 165.179367,20.603624 
	C166.539413,21.373003 167.995621,22.011602 169.245544,22.930725 
	C210.031845,52.922485 250.786179,82.957741 291.592285,112.922470 
	C294.643890,115.163330 298.045044,116.928223 301.640930,118.958191 
z"/>
<path fill="#FF0404" opacity="1.000000" stroke="none" 
	d="
M10.903969,171.284286 
	C16.424112,170.972519 21.892315,171.387878 27.263422,170.844131 
	C54.529919,168.083817 81.768448,165.048431 109.022316,162.161789 
	C128.513138,160.097412 148.009003,158.078781 167.510452,156.117661 
	C174.041260,155.460907 176.792633,158.581314 175.432083,165.166382 
	C171.930786,182.112686 168.280182,199.028107 164.767059,215.972015 
	C164.357529,217.947235 164.436646,220.023743 164.289230,222.053299 
	C164.731293,222.356827 165.173355,222.660355 165.615402,222.963882 
	C173.521301,217.706268 181.427185,212.448639 189.666534,207.095215 
	C190.000000,207.166153 190.000000,207.332932 190.000000,207.749847 
	C187.397034,210.781891 184.794052,213.563751 182.095535,216.672821 
	C178.805969,218.487335 175.611954,219.974686 172.208954,221.731018 
	C170.390060,223.010757 168.890656,224.484161 167.139206,224.902557 
	C165.376160,225.323730 163.362534,224.695984 161.229340,224.263931 
	C161.308258,222.252563 161.616516,220.505142 161.976379,217.994278 
	C162.685333,214.820572 163.342667,212.410278 164.000000,210.000000 
	C164.000000,209.555557 164.000000,209.111099 164.171967,208.062805 
	C164.562637,206.639313 164.781311,205.819656 165.000000,205.000000 
	C165.679703,195.758331 167.234543,186.676514 170.072296,177.045258 
	C170.785233,173.853851 171.392624,171.426926 172.000000,169.000000 
	C173.988953,158.026169 173.980011,157.939957 163.056137,159.072784 
	C140.743210,161.386673 118.440704,163.801147 96.135574,166.189621 
	C95.650162,166.241592 95.184639,166.479309 94.354919,166.815186 
	C93.250000,167.000000 92.500000,167.000000 91.023422,167.011627 
	C89.197899,167.348831 88.098946,167.674408 87.000000,168.000000 
	C84.299988,168.000000 81.599968,168.000000 78.449982,168.000000 
	C60.421658,169.814575 42.846603,171.662048 25.262268,173.416550 
	C21.653440,173.776611 18.000662,174.001007 14.387514,173.843506 
	C13.163373,173.790176 11.998958,172.366531 10.903969,171.284286 
z"/>
<path fill="#FF0404" opacity="1.000000" stroke="none" 
	d="
M10.683855,157.208710 
	C10.999484,160.692902 10.999726,164.385818 10.999603,168.539368 
	C10.554975,169.000000 10.110710,169.000000 9.333243,169.000000 
	C9.456182,165.139145 9.912326,161.278290 10.683855,157.208710 
z"/>
<path fill="#FF0404" opacity="1.000000" stroke="none" 
	d="
M140.795944,88.686676 
	C125.797501,87.525940 110.590424,86.098282 95.393700,84.567703 
	C77.386559,82.754074 59.388931,80.846069 41.385975,78.990646 
	C34.117531,78.241547 26.833717,77.625893 19.578932,76.764030 
	C11.288906,75.779167 11.085828,75.872246 10.999630,84.562935 
	C10.332986,82.940781 9.666831,80.881592 9.000338,78.411209 
	C11.103483,73.781677 14.874118,73.730621 18.785042,74.140793 
	C20.584780,74.329559 22.367155,74.683868 24.578701,74.981552 
	C25.444445,75.000000 25.888889,75.000000 27.088825,75.018524 
	C34.562878,75.691368 41.281441,76.345680 48.000000,77.000000 
	C59.696445,78.334808 71.390450,79.691444 83.089905,80.999405 
	C101.390251,83.045334 119.695885,85.044281 137.991959,87.127312 
	C138.894241,87.230034 139.726837,87.944557 140.795944,88.686676 
z"/>
<path fill="#FF0404" opacity="1.000000" stroke="none" 
	d="
M10.681458,88.211716 
	C10.792070,94.422195 10.584954,100.844353 10.190496,107.634018 
	C10.123344,101.475479 10.243536,94.949432 10.681458,88.211716 
z"/>
<path fill="#FF0404" opacity="1.000000" stroke="none" 
	d="
M9.835452,110.225761 
	C10.335326,112.059090 10.667459,114.119453 10.999395,116.590057 
	C10.999199,117.000305 10.499525,117.000153 10.249687,117.000076 
	C9.689196,115.575661 9.378543,114.151314 9.033926,112.363487 
	C9.222546,111.484268 9.445128,110.968529 9.835452,110.225761 
z"/>
<path fill="#FF0404" opacity="1.000000" stroke="none" 
	d="
M10.729431,120.082314 
	C10.999321,128.687485 10.999623,137.375092 10.999569,146.531342 
	C10.336617,145.433304 9.329828,143.920547 9.074400,142.290054 
	C8.225797,136.873169 7.490680,131.425888 7.073611,125.962669 
	C6.967047,124.566772 8.195241,123.068977 8.905056,121.309006 
	C9.486563,120.721581 9.973203,120.443161 10.729431,120.082314 
z"/>
<path fill="#FF0404" opacity="1.000000" stroke="none" 
	d="
M10.793924,152.091187 
	C10.999554,152.444443 10.999710,152.888901 10.999596,153.666672 
	C10.862368,153.394119 10.725410,152.788254 10.793924,152.091187 
z"/>
<path fill="#FF0505" opacity="1.000000" stroke="none" 
	d="
M160.942810,237.241333 
	C160.057953,236.151657 159.475327,235.052811 158.892700,233.953949 
	C159.780121,233.891724 160.667557,233.829498 161.554962,233.767288 
	C161.451660,234.922241 161.348343,236.077194 160.942810,237.241333 
z"/>
<path fill="#FF0505" opacity="1.000000" stroke="none" 
	d="
M47.974838,76.632706 
	C41.281441,76.345680 34.562878,75.691368 27.422157,75.018524 
	C28.129004,73.384613 29.258005,71.769226 29.619883,71.251450 
	C32.560017,71.830032 34.747612,72.403587 36.971840,72.662903 
	C39.914906,73.006020 42.924942,72.896599 45.822411,73.433678 
	C46.677101,73.592102 47.248470,75.278976 47.974838,76.632706 
z"/>
<path fill="#FF0505" opacity="1.000000" stroke="none" 
	d="
M163.623169,210.085052 
	C163.342667,212.410278 162.685333,214.820572 162.013992,217.615417 
	C161.040604,217.745895 159.925415,217.716187 159.158936,217.184158 
	C158.057266,216.419449 156.268616,215.022629 156.453049,214.371185 
	C156.814865,213.093170 158.183487,211.896469 159.422958,211.132599 
	C160.489899,210.475052 161.956467,210.465927 163.623169,210.085052 
z"/>
<path fill="#FF0505" opacity="1.000000" stroke="none" 
	d="
M171.654388,169.101456 
	C171.392624,171.426926 170.785233,173.853851 170.088928,176.640381 
	C168.462265,175.830078 166.924530,174.660156 165.386780,173.490250 
	C167.360764,172.061142 169.334763,170.632019 171.654388,169.101456 
z"/>
<path fill="#FF0505" opacity="1.000000" stroke="none" 
	d="
M164.747131,205.116760 
	C164.781311,205.819656 164.562637,206.639313 164.171967,207.729492 
	C164.164749,207.077835 164.329498,206.155685 164.747131,205.116760 
z"/>
<path fill="#FF0505" opacity="1.000000" stroke="none" 
	d="
M87.182480,168.227509 
	C88.098946,167.674408 89.197899,167.348831 90.648422,167.011627 
	C90.360130,168.913544 89.541313,170.380051 87.182480,168.227509 
z"/>
<path fill="#FF0404" opacity="1.000000" stroke="none" 
	d="
M239.968582,66.219238 
	C239.938278,66.217720 239.998886,66.220764 239.968582,66.219238 
z"/>
<path fill="#FF0404" opacity="1.000000" stroke="none" 
	d="
M191.333130,206.925140 
	C194.621506,203.936600 198.047668,200.595383 201.903244,197.859283 
	C223.632462,182.439178 245.461899,167.160278 267.272278,151.854736 
	C268.216614,151.192032 269.309418,150.740860 270.666565,150.095352 
	C271.000000,150.444092 271.000000,150.888641 271.000000,151.666595 
	C269.436218,153.474106 267.872437,154.948196 266.154327,156.711151 
	C261.844604,159.862656 257.689240,162.725327 253.266937,165.794006 
	C246.162964,170.515106 239.325928,175.030197 232.244446,179.772644 
	C229.800949,181.491791 227.601883,182.983566 224.915802,184.919189 
	C219.952530,188.575363 215.476257,191.787674 211.000000,195.000000 
	C207.494522,197.512741 203.989029,200.025467 199.924011,202.857300 
	C197.909653,204.117599 196.454834,205.058792 195.000000,206.000000 
	C193.889725,206.283966 192.779465,206.567917 191.333130,206.925140 
z"/>
<path fill="#FF0505" opacity="1.000000" stroke="none" 
	d="
M211.364471,194.957962 
	C215.476257,191.787674 219.952530,188.575363 224.714401,185.181519 
	C226.105545,190.969711 225.149918,191.921204 219.041595,192.489868 
	C216.550339,192.721817 214.163361,194.073624 211.364471,194.957962 
z"/>
<path fill="#FF0505" opacity="1.000000" stroke="none" 
	d="
M195.268524,206.149887 
	C196.454834,205.058792 197.909653,204.117599 199.682251,203.088196 
	C198.512360,204.099930 197.024704,205.199860 195.268524,206.149887 
z"/>
<path fill="#FF0404" opacity="1.000000" stroke="none" 
	d="
M271.319427,149.952240 
	C271.800995,149.387863 272.601990,148.775711 273.701477,148.081482 
	C273.212952,148.634415 272.425903,149.269424 271.319427,149.952240 
z"/>
</svg>